<?xml version="1.0" standalone="no"?>
<!DOCTYPE svg PUBLIC "-//W3C//DTD SVG 20010904//EN"
 "http://www.w3.org/TR/2001/REC-SVG-20010904/DTD/svg10.dtd">
<svg version="1.0" xmlns="http://www.w3.org/2000/svg"
 width="16.000000pt" height="16.000000pt" viewBox="0 0 16.000000 16.000000"
 preserveAspectRatio="xMidYMid meet">
<metadata>
Created by potrace 1.11, written by Peter Selinger 2001-2013
</metadata>
<g transform="translate(0.000000,16.000000) scale(0.002667,-0.002667)"
fill="#000000" stroke="none">
<path d="M174 5976 c-65 -30 -120 -85 -150 -150 l-24 -51 0 -2775 0 -2775 24
-51 c30 -65 85 -120 150 -150 l51 -24 2775 0 2775 0 51 24 c65 30 120 85 150
150 l24 51 0 2775 0 2775 -24 51 c-30 65 -85 120 -150 150 l-51 24 -2775 0
-2775 0 -51 -24z m5335 -591 c59 -32 112 -90 137 -151 25 -59 21 -173 -8 -254
-19 -50 -2301 -3974 -2452 -4215 -44 -71 -103 -133 -151 -158 -59 -32 -201
-31 -267 1 -99 49 -166 142 -175 241 -7 81 21 158 115 313 44 73 591 1011
1217 2083 625 1073 1152 1974 1171 2003 46 71 107 130 157 153 64 30 184 23
256 -16z m-4114 -2900 c40 -21 72 -47 97 -80 66 -86 69 -111 66 -482 l-3 -328
-27 -51 c-36 -68 -115 -138 -172 -153 -29 -7 -173 -11 -414 -11 -421 0 -432 2
-506 76 -90 90 -105 156 -105 489 -1 225 10 348 35 397 47 94 121 152 213 168
25 5 206 8 402 7 l355 -2 59 -30z"/>
</g>
</svg>
